grf
version=1
nRows=38
nColumns=28
inDegrees=yes
endheader
time	ground_force_1_vx	ground_force_1_vy	ground_force_1_vz	ground_force_1_px	ground_force_1_py	ground_force_1_pz	ground_moment_1_mx	ground_moment_1_my	ground_moment_1_mz	ground_force_2_vx	ground_force_2_vy	ground_force_2_vz	ground_force_2_px	ground_force_2_py	ground_force_2_pz	ground_moment_2_mx	ground_moment_2_my	ground_moment_2_mz	ground_force_3_vx	ground_force_3_vy	ground_force_3_vz	ground_force_3_px	ground_force_3_py	ground_force_3_pz	ground_moment_3_mx	ground_moment_3_my	ground_moment_3_mz
1.100000	0.000000	0.000000	0.000000	0.000000	0.000000	0.000000	0.000000	0.000000	0.000000	66.601925	432.218849	14.558536	-0.189336	-0.000207	0.301872	0.000345	0.603993	-0.000739	0.000000	0.000000	0.000000	0.000000	0.000000	0.000000	0.000000	0.000000	0.000000
1.100667	0.000000	0.000000	0.000000	0.000000	0.000000	0.000000	0.000000	0.000000	0.000000	67.075820	432.667225	14.518890	-0.190449	-0.000207	0.301042	0.000344	0.602987	-0.000738	0.000000	0.000000	0.000000	0.000000	0.000000	0.000000	0.000000	0.000000	0.000000
1.101333	0.000000	0.000000	0.000000	0.000000	0.000000	0.000000	0.000000	0.000000	0.000000	67.551734	433.091589	14.474959	-0.190504	-0.000208	0.300697	0.000344	0.602046	-0.000737	0.000000	0.000000	0.000000	0.000000	0.000000	0.000000	0.000000	0.000000	0.000000
1.102000	0.000000	0.000000	0.000000	0.000000	0.000000	0.000000	0.000000	0.000000	0.000000	68.029648	433.491514	14.426553	-0.189713	-0.000207	0.301393	0.000343	0.601155	-0.000735	0.000000	0.000000	0.000000	0.000000	0.000000	0.000000	0.000000	0.000000	0.000000
1.102667	0.000000	0.000000	0.000000	0.000000	0.000000	0.000000	0.000000	0.000000	0.000000	68.509528	433.866560	14.373478	-0.189925	-0.000207	0.301674	0.000343	0.600296	-0.000734	0.000000	0.000000	0.000000	0.000000	0.000000	0.000000	0.000000	0.000000	0.000000
1.103333	0.000000	0.000000	0.000000	0.000000	0.000000	0.000000	0.000000	0.000000	0.000000	68.991329	434.216260	14.315539	-0.190323	-0.000207	0.301268	0.000342	0.599450	-0.000733	0.000000	0.000000	0.000000	0.000000	0.000000	0.000000	0.000000	0.000000	0.000000
1.104000	0.000000	0.000000	0.000000	0.000000	0.000000	0.000000	0.000000	0.000000	0.000000	69.475004	434.540151	14.252533	-0.190200	-0.000206	0.301960	0.000342	0.598599	-0.000732	0.000000	0.000000	0.000000	0.000000	0.000000	0.000000	0.000000	0.000000	0.000000
1.104667	0.000000	0.000000	0.000000	0.000000	0.000000	0.000000	0.000000	0.000000	0.000000	69.960500	434.837835	14.184255	-0.189440	-0.000207	0.301763	0.000341	0.597726	-0.000731	0.000000	0.000000	0.000000	0.000000	0.000000	0.000000	0.000000	0.000000	0.000000
1.105333	0.000000	0.000000	0.000000	0.000000	0.000000	0.000000	0.000000	0.000000	0.000000	70.447739	435.109015	14.110502	-0.189414	-0.000207	0.301674	0.000341	0.596817	-0.000730	0.000000	0.000000	0.000000	0.000000	0.000000	0.000000	0.000000	0.000000	0.000000
1.106000	0.000000	0.000000	0.000000	0.000000	0.000000	0.000000	0.000000	0.000000	0.000000	70.936609	435.353465	14.031094	-0.189295	-0.000207	0.301865	0.000340	0.595862	-0.000729	0.000000	0.000000	0.000000	0.000000	0.000000	0.000000	0.000000	0.000000	0.000000
1.106667	0.000000	0.000000	0.000000	0.000000	0.000000	0.000000	0.000000	0.000000	0.000000	71.426974	435.570966	13.945878	-0.188973	-0.000207	0.301851	0.000340	0.594848	-0.000728	0.000000	0.000000	0.000000	0.000000	0.000000	0.000000	0.000000	0.000000	0.000000
1.107333	0.000000	0.000000	0.000000	0.000000	0.000000	0.000000	0.000000	0.000000	0.000000	71.918687	435.761281	13.854727	-0.189324	-0.000207	0.301566	0.000339	0.593762	-0.000726	0.000000	0.000000	0.000000	0.000000	0.000000	0.000000	0.000000	0.000000	0.000000
1.108000	0.000000	0.000000	0.000000	0.000000	0.000000	0.000000	0.000000	0.000000	0.000000	72.411593	435.924175	13.757531	-0.190931	-0.000206	0.301732	0.000338	0.592590	-0.000725	0.000000	0.000000	0.000000	0.000000	0.000000	0.000000	0.000000	0.000000	0.000000
1.108667	0.000000	0.000000	0.000000	0.000000	0.000000	0.000000	0.000000	0.000000	0.000000	72.905525	436.059438	13.654195	-0.189399	-0.000207	0.301360	0.000338	0.591320	-0.000723	0.000000	0.000000	0.000000	0.000000	0.000000	0.000000	0.000000	0.000000	0.000000
1.109333	0.000000	0.000000	0.000000	0.000000	0.000000	0.000000	0.000000	0.000000	0.000000	73.400308	436.166886	13.544638	-0.189474	-0.000207	0.301390	0.000337	0.589942	-0.000722	0.000000	0.000000	0.000000	0.000000	0.000000	0.000000	0.000000	0.000000	0.000000
1.110000	0.000000	0.000000	0.000000	0.000000	0.000000	0.000000	0.000000	0.000000	0.000000	73.895754	436.246327	13.428793	-0.189214	-0.000206	0.302540	0.000336	0.588450	-0.000720	0.000000	0.000000	0.000000	0.000000	0.000000	0.000000	0.000000	0.000000	0.000000
1.110667	0.000000	0.000000	0.000000	0.000000	0.000000	0.000000	0.000000	0.000000	0.000000	74.391678	436.297535	13.306605	-0.189000	-0.000207	0.301495	0.000335	0.586836	-0.000718	0.000000	0.000000	0.000000	0.000000	0.000000	0.000000	0.000000	0.000000	0.000000
1.111333	0.000000	0.000000	0.000000	0.000000	0.000000	0.000000	0.000000	0.000000	0.000000	74.887914	436.320231	13.178022	-0.188672	-0.000209	0.300351	0.000334	0.585091	-0.000716	0.000000	0.000000	0.000000	0.000000	0.000000	0.000000	0.000000	0.000000	0.000000
1.112000	0.000000	0.000000	0.000000	0.000000	0.000000	0.000000	0.000000	0.000000	0.000000	75.384323	436.314103	13.042984	-0.188216	-0.000208	0.301093	0.000333	0.583204	-0.000713	0.000000	0.000000	0.000000	0.000000	0.000000	0.000000	0.000000	0.000000	0.000000
1.112667	0.000000	0.000000	0.000000	0.000000	0.000000	0.000000	0.000000	0.000000	0.000000	75.880774	436.278824	12.901428	-0.188068	-0.000207	0.302371	0.000332	0.581159	-0.000711	0.000000	0.000000	0.000000	0.000000	0.000000	0.000000	0.000000	0.000000	0.000000
1.113333	0.000000	0.000000	0.000000	0.000000	0.000000	0.000000	0.000000	0.000000	0.000000	76.377133	436.214055	12.753290	-0.188431	-0.000207	0.301818	0.000331	0.578943	-0.000708	0.000000	0.000000	0.000000	0.000000	0.000000	0.000000	0.000000	0.000000	0.000000
1.114000	0.000000	0.000000	0.000000	0.245952	0.000055	0.378647	0.000000	0.000000	0.000000	76.873257	436.119444	12.598505	-0.188032	-0.000208	0.301691	0.000329	0.576543	-0.000705	0.000000	0.000000	0.000000	0.000000	0.000000	0.000000	0.000000	0.000000	0.000000
1.114667	0.000000	0.000000	0.000000	0.246817	0.000055	0.378976	0.000000	0.000000	0.000000	77.368992	435.994628	12.437021	-0.188377	-0.000208	0.301320	0.000328	0.573948	-0.000702	0.000000	0.000000	0.000000	0.000000	0.000000	0.000000	0.000000	0.000000	0.000000
1.115333	0.000000	0.000000	0.000000	0.246511	0.000055	0.378575	0.000000	0.000000	0.000000	77.864170	435.839225	12.268793	-0.188309	-0.000208	0.301252	0.000326	0.571151	-0.000699	0.000000	0.000000	0.000000	0.000000	0.000000	0.000000	0.000000	0.000000	0.000000
1.116000	0.000000	0.000000	0.000000	0.246793	0.000054	0.378120	0.000000	0.000000	0.000000	78.358607	435.652807	12.093788	-0.187907	-0.000208	0.301332	0.000324	0.568149	-0.000695	0.000000	0.000000	0.000000	0.000000	0.000000	0.000000	0.000000	0.000000	0.000000
1.116667	0.000000	0.000000	0.000000	0.247191	0.000053	0.378068	0.000000	0.000000	0.000000	78.852106	435.434883	11.911978	-0.187792	-0.000208	0.301768	0.000323	0.564943	-0.000691	0.000000	0.000000	0.000000	0.000000	0.000000	0.000000	0.000000	0.000000	0.000000
1.117333	0.000000	0.000000	0.000000	0.247099	0.000053	0.377834	0.000000	0.000000	0.000000	79.344456	435.184890	11.723352	-0.188183	-0.000207	0.302396	0.000321	0.561538	-0.000687	0.000000	0.000000	0.000000	0.000000	0.000000	0.000000	0.000000	0.000000	0.000000
1.118000	0.000000	0.000000	0.000000	0.246808	0.000052	0.377156	0.000000	0.000000	0.000000	79.835428	434.902196	11.527911	-0.188054	-0.000209	0.301112	0.000319	0.557940	-0.000683	0.000000	0.000000	0.000000	0.000000	0.000000	0.000000	0.000000	0.000000	0.000000
1.118667	0.000000	0.000000	0.000000	0.247446	0.000053	0.378243	0.000000	0.000000	0.000000	80.324766	434.586115	11.325666	-0.188087	-0.000207	0.302189	0.000316	0.554161	-0.000678	0.000000	0.000000	0.000000	0.000000	0.000000	0.000000	0.000000	0.000000	0.000000
1.119333	0.000000	0.000000	0.000000	0.247402	0.000054	0.378628	0.000000	0.000000	0.000000	80.812185	434.235923	11.116626	-0.187202	-0.000208	0.302278	0.000314	0.550213	-0.000673	0.000000	0.000000	0.000000	0.000000	0.000000	0.000000	0.000000	0.000000	0.000000
1.120000	0.000000	0.000000	0.000000	0.248171	0.000053	0.378167	0.000000	0.000000	0.000000	81.297386	433.850862	10.900806	-0.187020	-0.000208	0.301818	0.000312	0.546110	-0.000668	0.000000	0.000000	0.000000	0.000000	0.000000	0.000000	0.000000	0.000000	0.000000
1.120667	0.000000	0.000000	0.000000	0.248476	0.000053	0.378307	0.000000	0.000000	0.000000	81.780058	433.430172	10.678237	-0.187607	-0.000208	0.301811	0.000309	0.541873	-0.000663	0.000000	0.000000	0.000000	0.000000	0.000000	0.000000	0.000000	0.000000	0.000000
1.121333	0.000000	0.000000	0.000000	0.248804	0.000054	0.379299	0.000000	0.000000	0.000000	82.259869	432.973093	10.448969	-0.188092	-0.000207	0.302130	0.000307	0.537529	-0.000658	0.000000	0.000000	0.000000	0.000000	0.000000	0.000000	0.000000	0.000000	0.000000
1.122000	0.000000	0.000000	0.000000	0.249499	0.000055	0.379926	0.000000	0.000000	0.000000	82.736463	432.478859	10.213063	-0.187779	-0.000207	0.302178	0.000304	0.533110	-0.000652	0.000000	0.000000	0.000000	0.000000	0.000000	0.000000	0.000000	0.000000	0.000000
1.122667	0.000000	0.000000	0.000000	0.250371	0.000053	0.379427	0.000000	0.000000	0.000000	83.209465	431.946675	9.970602	-0.187290	-0.000208	0.302098	0.000302	0.528654	-0.000647	0.000000	0.000000	0.000000	0.000000	0.000000	0.000000	0.000000	0.000000	0.000000
1.123333	0.000000	0.000000	0.000000	0.250855	0.000052	0.379092	0.000000	0.000000	0.000000	83.678494	431.375691	9.721685	-0.189096	-0.000208	0.301375	0.000299	0.524199	-0.000641	0.000000	0.000000	0.000000	0.000000	0.000000	0.000000	0.000000	0.000000	0.000000
1.124000	2.093675	24.597535	3.555093	0.250311	0.000052	0.378738	-0.000019	-0.021693	0.000040	84.143169	430.764967	9.466422	-0.187640	-0.000208	0.302063	0.000297	0.519784	-0.000636	0.000000	0.000000	0.000000	0.000000	0.000000	0.000000	0.000000	0.000000	0.000000
1.124667	2.058726	28.988563	4.182878	0.250268	0.000052	0.378736	-0.000022	-0.025188	0.000047	84.603110	430.113437	9.204934	-0.186639	-0.000207	0.302661	0.000294	0.515447	-0.000631	0.000000	0.000000	0.000000	0.000000	0.000000	0.000000	0.000000	0.000000	0.000000
